<svg width="226" height="252" viewBox="0 0 226 252" fill="none" xmlns="http://www.w3.org/2000/svg">
<g filter="url(#filter0_d)">
<mask id="path-1-inside-1" fill="white">
<path fill-rule="evenodd" clip-rule="evenodd" d="M183.229 119.454L112.941 180.103L43.3159 119.521L10.6761 157.119L112.792 246L215.72 157.186L183.229 119.454ZM45.4896 5.99985L6 36.291C35.8369 75.2843 72.109 95.877 113.572 95.877C155.168 95.877 191.092 75.1515 220 35.9257L179.947 6.3652C159.912 33.5675 138.251 46.056 113.572 46.056C88.7606 46.056 66.47 33.418 45.4896 5.99985Z"/>
</mask>
<path d="M112.941 180.103L110.972 182.366L112.933 184.073L114.901 182.375L112.941 180.103ZM183.229 119.454L185.503 117.497L183.543 115.221L181.27 117.183L183.229 119.454ZM43.3159 119.521L45.2852 117.258L43.0194 115.286L41.0505 117.554L43.3159 119.521ZM10.6761 157.119L8.41064 155.152L6.44651 157.415L8.70647 159.382L10.6761 157.119ZM112.792 246L110.822 248.263L112.783 249.97L114.752 248.271L112.792 246ZM215.72 157.186L217.68 159.457L219.949 157.499L217.993 155.228L215.72 157.186ZM6 36.291L4.17411 33.9107L1.79657 35.7344L3.61748 38.1141L6 36.291ZM45.4896 5.99985L47.8721 4.17676L46.0469 1.79144L43.6637 3.61949L45.4896 5.99985ZM113.572 95.877L113.572 98.877L113.572 95.877ZM220 35.9257L222.415 37.7055L224.194 35.2921L221.781 33.5119L220 35.9257ZM179.947 6.3652L181.728 3.9514L179.312 2.16821L177.531 4.5861L179.947 6.3652ZM113.572 46.056L113.572 49.056L113.572 49.056L113.572 46.056ZM114.901 182.375L185.189 121.726L181.27 117.183L110.981 177.832L114.901 182.375ZM41.3467 121.784L110.972 182.366L114.91 177.84L45.2852 117.258L41.3467 121.784ZM12.9415 159.086L45.5814 121.488L41.0505 117.554L8.41064 155.152L12.9415 159.086ZM114.761 243.737L12.6457 154.856L8.70647 159.382L110.822 248.263L114.761 243.737ZM213.76 154.914L110.832 243.729L114.752 248.271L217.68 159.457L213.76 154.914ZM180.956 121.412L213.447 159.143L217.993 155.228L185.503 117.497L180.956 121.412ZM7.8259 38.6714L47.3155 8.3802L43.6637 3.61949L4.17411 33.9107L7.8259 38.6714ZM113.572 92.877C73.2535 92.877 37.7932 72.9042 8.38253 34.468L3.61748 38.1141C33.8806 77.6644 70.9645 98.877 113.572 98.877L113.572 92.877ZM217.585 34.1459C189.109 72.7848 154.011 92.877 113.572 92.877L113.572 98.877C156.325 98.877 193.074 77.5181 222.415 37.7055L217.585 34.1459ZM178.165 8.779L218.219 38.3395L221.781 33.5119L181.728 3.9514L178.165 8.779ZM113.572 49.056C139.485 49.056 161.952 35.8564 182.362 8.1443L177.531 4.5861C157.871 31.2785 137.017 43.056 113.572 43.056L113.572 49.056ZM43.1071 7.82294C64.4549 35.7213 87.5402 49.056 113.572 49.056L113.572 43.056C89.981 43.056 68.485 31.1147 47.8721 4.17676L43.1071 7.82294Z" fill="url(#paint0_linear)" mask="url(#path-1-inside-1)"/>
</g>
<defs>
<filter id="filter0_d" x="0" y="-0.000152588" width="226" height="252" filterUnits="userSpaceOnUse" color-interpolation-filters="sRGB">
<feFlood flood-opacity="0" result="BackgroundImageFix"/>
<feColorMatrix in="SourceAlpha" type="matrix" values="0 0 0 0 0 0 0 0 0 0 0 0 0 0 0 0 0 0 127 0"/>
<feOffset/>
<feGaussianBlur stdDeviation="3"/>
<feColorMatrix type="matrix" values="0 0 0 0 0.686275 0 0 0 0 0.584314 0 0 0 0 0.831373 0 0 0 1 0"/>
<feBlend mode="normal" in2="BackgroundImageFix" result="effect1_dropShadow"/>
<feBlend mode="normal" in="SourceGraphic" in2="effect1_dropShadow" result="shape"/>
</filter>
<linearGradient id="paint0_linear" x1="220" y1="213.097" x2="23.996" y2="40.8706" gradientUnits="userSpaceOnUse">
<stop stop-color="#786AF7"/>
<stop offset="1" stop-color="#CE7AAB"/>
</linearGradient>
</defs>
</svg>
