<svg width="31" height="30" viewBox="0 0 31 30" fill="none" xmlns="http://www.w3.org/2000/svg">
<path d="M2.95255 6.93952C5.07189 7.30466 6.92067 6.25488 7.3716 4.42916C7.9578 2.01009 6.28938 -0.0438353 3.76421 0.00180756C2.09579 -0.0438353 0.788112 0.777736 0.247003 2.14702C-0.564659 4.33788 0.697927 6.57438 2.95255 6.93952Z" fill="white"/>
<path d="M30.504 29.9894C28.6101 29.9438 26.7613 29.9438 24.8675 29.9894C24.4616 29.9894 24.3714 29.8981 24.3714 29.4873V19.309C24.3714 18.5331 24.3263 17.7571 24.1009 17.0269C23.4245 14.6534 20.719 13.7862 18.78 15.3837C17.7429 16.2053 17.337 17.3464 17.337 18.7156V28.3006C17.337 28.4359 17.3321 28.5712 17.3272 28.7081C17.3171 28.9869 17.3068 29.2725 17.337 29.5786C17.3821 29.9438 17.2018 30.0351 16.8861 29.9894H11.1143C10.7535 29.9894 10.6634 29.8981 10.6634 29.533C10.7085 26.6575 10.7085 23.782 10.7085 20.8609C10.7085 17.3007 10.7085 13.7406 10.6634 10.2261C10.6634 9.81529 10.7535 9.724 11.1143 9.724H16.8861C17.2468 9.724 17.337 9.81529 17.337 10.1804V12.5082L17.5625 12.28C19.3211 9.67836 21.8012 8.94807 24.7322 9.4045C28.1141 9.95222 30.2785 12.3256 30.8197 15.9771C30.9549 16.8443 31 17.7115 31 18.5787V29.4873C31 29.8525 30.9098 29.9894 30.504 29.9894Z" fill="white"/>
<path d="M7.05595 19.8563V29.4413C7.05595 29.8521 6.96576 29.989 6.55993 29.989C5.29734 29.9586 4.03476 29.9688 2.77217 29.9789C2.14088 29.984 1.50959 29.989 0.878292 29.989C0.517553 29.989 0.427368 29.8978 0.427368 29.5326V10.1801C0.427368 9.86056 0.517553 9.72363 0.878292 9.72363H6.69521C7.10104 9.72363 7.14613 9.86056 7.14613 10.2257C7.05595 13.4207 7.05595 16.6157 7.05595 19.8563Z" fill="white"/>
</svg>
