<svg width="236" height="50" viewBox="0 0 236 50" fill="none" xmlns="http://www.w3.org/2000/svg">
<path d="M77.2417 18.6445C77.2417 20.6934 75.7585 22.3103 72.7208 22.3103H66.4743V9.27783H72.4784C75.516 9.27783 76.8994 10.7274 76.8994 12.637C76.8994 14.003 76.058 15.118 74.5035 15.5223C76.2291 15.7732 77.2417 16.9161 77.2417 18.6445ZM69.6403 11.4662V14.6441H71.6369C73.0631 14.6441 73.605 13.9193 73.605 13.0412C73.605 12.1631 73.006 11.4662 71.6369 11.4662H69.6403ZM73.9473 18.3796C73.9473 17.3761 73.2485 16.6931 71.9079 16.6931H69.6403V20.1219H71.8366C73.277 20.1219 73.9473 19.3693 73.9473 18.3796Z" fill="white"/>
<path d="M84.3439 17.3203H82.4186V22.3103H79.2526V9.27783H85.114C88.494 9.27783 89.9914 10.8947 89.9914 13.2782C89.9914 14.909 89.1072 16.2889 87.3816 16.8603L90.3337 22.3103H86.8967L84.3439 17.3203ZM82.4186 15.1877H84.4723C86.0125 15.1877 86.6828 14.4629 86.6828 13.2782C86.6828 12.0934 86.0268 11.4662 84.4723 11.4662H82.4186V15.1877Z" fill="white"/>
<path d="M91.1038 15.8013C91.1038 11.5919 93.6709 8.97144 97.6641 8.97144C101.657 8.97144 104.239 11.5919 104.239 15.8013C104.239 20.0107 101.672 22.6172 97.6641 22.6172C93.6566 22.6172 91.1038 19.9828 91.1038 15.8013ZM100.973 15.8013C100.973 13.0415 99.7463 11.3967 97.6641 11.3967C95.5819 11.3967 94.3412 13.0415 94.3412 15.8013C94.3412 18.5611 95.5819 20.1919 97.6641 20.1919C99.7463 20.1919 100.973 18.5472 100.973 15.8013Z" fill="white"/>
<path d="M106.164 9.27783H109.686L113.965 16.707C114.267 17.2521 114.534 17.8154 114.764 18.3936H114.806C114.806 17.8918 114.792 17.3482 114.792 16.7349V9.27783H117.701V22.3103H114.321L109.886 14.8114C109.592 14.2931 109.33 13.7578 109.102 13.2085H109.059C109.059 13.7381 109.073 14.2957 109.073 14.9368V22.3103H106.164V9.27783Z" fill="white"/>
<path d="M66.0179 34.1022C66.0179 30.1019 68.1001 27.3142 72.0077 27.3142C75.2166 27.3142 76.8994 29.2098 77.2417 31.9L75.7585 32.0533C75.4733 29.9346 74.1612 28.5408 71.9364 28.5408C69.1412 28.5408 67.5439 30.7709 67.5439 34.0883C67.5439 37.4056 69.0271 39.7194 71.965 39.7194C74.0329 39.7194 75.4305 38.4092 75.8298 36.3184L77.2417 36.5415C76.7568 39.0086 75.1595 40.9599 71.9507 40.9599C67.8577 40.9599 66.0179 37.8796 66.0179 34.1022Z" fill="white"/>
<path d="M79.0671 34.144C79.0671 29.9068 81.4345 27.3142 85.0712 27.3142C88.7079 27.3142 91.0753 29.9068 91.0753 34.144C91.0753 38.3813 88.7079 40.9599 85.0712 40.9599C81.4345 40.9599 79.0671 38.2838 79.0671 34.144ZM89.5635 34.144C89.5635 30.6873 87.8807 28.5269 85.0712 28.5269C82.2617 28.5269 80.5788 30.6873 80.5788 34.144C80.5788 37.6008 82.276 39.7612 85.0712 39.7612C87.8664 39.7612 89.5635 37.5868 89.5635 34.144Z" fill="white"/>
<path d="M93.9846 27.635H96.0383L99.9174 38.047C100.07 38.4042 100.176 38.7789 100.231 39.1621H100.274C100.345 38.744 100.402 38.6046 100.616 38.047L104.481 27.635H106.549V40.6535H105.194V30.2694C105.187 29.8362 105.211 29.4031 105.265 28.9731H105.194C105.095 29.4344 104.971 29.8903 104.823 30.3391L100.973 40.6535H99.5608L95.7102 30.3391C95.5453 29.8944 95.4165 29.4376 95.3252 28.9731H95.2681C95.2967 29.3773 95.3252 29.7955 95.3252 30.2694V40.6535H93.9846V27.635Z" fill="white"/>
<path d="M110.485 27.635H112.539L116.418 38.047C116.564 38.4063 116.669 38.7803 116.732 39.1621H116.774C116.846 38.744 116.903 38.6046 117.117 38.047L120.982 27.635H123.049V40.6535H121.695V30.2694C121.688 29.8362 121.712 29.4031 121.766 28.9731H121.695C121.595 29.4344 121.472 29.8903 121.324 30.3391L117.473 40.6535H116.061L112.211 30.3391C112.046 29.8944 111.917 29.4376 111.826 28.9731H111.769C111.797 29.3773 111.826 29.7955 111.826 30.2694V40.6535H110.485V27.635Z" fill="white"/>
<path d="M128.155 27.635V36.0678C128.155 38.284 129.41 39.7057 131.678 39.7057C133.945 39.7057 135.229 38.284 135.229 36.0678V27.635H136.683V36.1653C136.683 39.0367 134.901 40.9602 131.678 40.9602C128.455 40.9602 126.7 39.0367 126.7 36.1653V27.635H128.155Z" fill="white"/>
<path d="M140.334 27.635H142.103L148.278 37.5731C148.57 38.059 148.832 38.5617 149.062 39.0785H149.091C149.062 38.6325 149.048 38.1725 149.048 37.4756V27.635H150.36V40.6535H148.592L142.417 30.6875C142.102 30.2139 141.839 29.7094 141.632 29.1822H141.589C141.632 29.6282 141.646 30.0882 141.646 30.7851V40.6535H140.334V27.635Z" fill="white"/>
<path d="M154.296 40.6535V27.635H155.737V40.6535H154.296Z" fill="white"/>
<path d="M158.646 34.1022C158.646 30.1019 160.728 27.3142 164.636 27.3142C167.845 27.3142 169.542 29.2098 169.87 31.9L168.386 32.0533C168.116 29.9346 166.803 28.5408 164.564 28.5408C161.769 28.5408 160.172 30.7709 160.172 34.0883C160.172 37.4056 161.655 39.7194 164.607 39.7194C166.661 39.7194 168.058 38.4092 168.472 36.3184L169.87 36.5415C169.385 39.0086 167.787 40.9599 164.579 40.9599C160.486 40.9599 158.646 37.8796 158.646 34.1022Z" fill="white"/>
<path d="M179.639 36.8623H173.891L172.48 40.6535H170.968L176.045 27.635H177.5L182.562 40.6535H181.051L179.639 36.8623ZM179.182 35.6496L177.214 30.3112C177.029 29.7955 176.901 29.447 176.787 29.0428H176.744C176.623 29.4723 176.48 29.8957 176.316 30.3112L174.348 35.6496H179.182Z" fill="white"/>
<path d="M191.861 28.8337H187.554V40.6535H186.099V28.8337H181.792V27.635H191.861V28.8337Z" fill="white"/>
<path d="M194.014 40.6535V27.635H195.455V40.6535H194.014Z" fill="white"/>
<path d="M198.364 34.144C198.364 29.9068 200.731 27.3142 204.382 27.3142C208.033 27.3142 210.386 29.9068 210.386 34.144C210.386 38.3813 208.019 40.9599 204.382 40.9599C200.746 40.9599 198.364 38.2838 198.364 34.144ZM208.86 34.144C208.86 30.6873 207.192 28.5269 204.382 28.5269C201.573 28.5269 199.89 30.6873 199.89 34.144C199.89 37.6008 201.573 39.7612 204.382 39.7612C207.192 39.7612 208.86 37.5868 208.86 34.144Z" fill="white"/>
<path d="M213.296 27.635H215.05L221.225 37.5731C221.527 38.056 221.794 38.559 222.024 39.0785H222.052C222.024 38.6325 221.995 38.1725 221.995 37.4756V27.635H223.322V40.6535H221.553L215.378 30.6875C215.063 30.2139 214.8 29.7094 214.594 29.1822H214.551C214.594 29.6282 214.608 30.0882 214.608 30.7851V40.6535H213.296V27.635Z" fill="white"/>
<path d="M225.974 36.7505L227.443 36.5415C227.657 38.3116 228.784 39.7891 231.294 39.7891C233.019 39.7891 234.503 39.0364 234.503 37.336C234.503 35.6355 233.447 35.1197 231.793 34.7992L229.825 34.4228C227.914 34.0465 226.545 33.0429 226.545 30.9243C226.545 28.8056 228.285 27.3142 231.066 27.3142C233.847 27.3142 235.672 28.4572 235.886 31.0915L234.431 31.3703C234.246 29.405 233.119 28.4572 231.037 28.4572C229.226 28.4572 228.042 29.3492 228.042 30.7988C228.042 32.2484 228.798 32.8617 230.41 33.1823L232.378 33.5726C234.431 33.9768 236 34.8549 236 37.1826C236 39.5103 234.374 40.9599 231.237 40.9599C228.099 40.9599 226.174 39.1619 225.974 36.7505Z" fill="white"/>
<path d="M17.3721 17.0015H1V32.9986H17.3721V17.0015Z" stroke="white"/>
<path d="M17.3721 33.0029H1V49.0001H17.3721V33.0029Z" stroke="white"/>
<path d="M33.7443 17.0015H17.3721V32.9986H33.7443V17.0015Z" stroke="white"/>
<path d="M33.7443 33.0029H17.3721V49.0001H33.7443V33.0029Z" stroke="white"/>
<path d="M50.1022 17.0015H33.73V32.9986H50.1022V17.0015Z" stroke="white"/>
<path d="M17.3721 1.00049V17.0018H1C1 12.758 2.72492 8.68801 5.79529 5.68717C8.86566 2.68634 13.03 1.00049 17.3721 1.00049V1.00049Z" stroke="white"/>
<path d="M33.7443 1H17.3721V16.9972H33.7443V1Z" stroke="white"/>
<path d="M50.1022 1H33.73V16.9972H50.1022V1Z" stroke="white"/>
<path d="M33.73 33.0029H50.1022C50.0984 37.2443 48.3718 41.3108 45.3018 44.3086C42.2319 47.3064 38.0697 48.9903 33.73 48.9903V48.9903V33.0029Z" stroke="white"/>
<path d="M17.3721 48.5384L17.5 33.1443H33.5" stroke="white" stroke-linejoin="bevel"/>
</svg>
