<svg width="235" height="48" viewBox="0 0 235 48" fill="none" xmlns="http://www.w3.org/2000/svg">
<path d="M76.2417 17.6445C76.2417 19.6934 74.7585 21.3103 71.7209 21.3103H65.4744V8.27783H71.4784C74.5161 8.27783 75.8995 9.72743 75.8995 11.637C75.8995 13.003 75.058 14.1181 73.5035 14.5223C75.2292 14.7732 76.2417 15.9161 76.2417 17.6445ZM68.6404 10.4662V13.6441H70.637C72.0631 13.6441 72.6051 12.9193 72.6051 12.0412C72.6051 11.1631 72.0061 10.4662 70.637 10.4662H68.6404ZM72.9473 17.3797C72.9473 16.3761 72.2485 15.6931 70.908 15.6931H68.6404V19.122H70.8367C72.2771 19.122 72.9473 18.3693 72.9473 17.3797Z" fill="white"/>
<path d="M83.3439 16.3203H81.4186V21.3103H78.2526V8.27783H84.114C87.494 8.27783 88.9914 9.89469 88.9914 12.2782C88.9914 13.909 88.1072 15.2889 86.3816 15.8604L89.3337 21.3103H85.8967L83.3439 16.3203ZM81.4186 14.1877H83.4723C85.0125 14.1877 85.6828 13.4629 85.6828 12.2782C85.6828 11.0934 85.0268 10.4662 83.4723 10.4662H81.4186V14.1877Z" fill="white"/>
<path d="M90.1039 14.8013C90.1039 10.5919 92.6709 7.97144 96.6641 7.97144C100.657 7.97144 103.239 10.5919 103.239 14.8013C103.239 19.0107 100.672 21.6172 96.6641 21.6172C92.6567 21.6172 90.1039 18.9828 90.1039 14.8013ZM99.9728 14.8013C99.9728 12.0415 98.7463 10.3967 96.6641 10.3967C94.582 10.3967 93.3412 12.0415 93.3412 14.8013C93.3412 17.5611 94.582 19.1919 96.6641 19.1919C98.7463 19.1919 99.9728 17.5472 99.9728 14.8013Z" fill="white"/>
<path d="M105.164 8.27783H108.687L112.965 15.707C113.268 16.2521 113.534 16.8154 113.764 17.3936H113.806C113.806 16.8918 113.792 16.3482 113.792 15.7349V8.27783H116.701V21.3103H113.321L108.886 13.8114C108.592 13.2931 108.33 12.7578 108.102 12.2085H108.059C108.059 12.7381 108.073 13.2957 108.073 13.9369V21.3103H105.164V8.27783Z" fill="white"/>
<path d="M65.0179 33.1022C65.0179 29.1019 67.1001 26.3142 71.0077 26.3142C74.2166 26.3142 75.8994 28.2098 76.2417 30.9L74.7585 31.0533C74.4733 28.9346 73.1612 27.5408 70.9364 27.5408C68.1412 27.5408 66.5439 29.7709 66.5439 33.0883C66.5439 36.4057 68.0271 38.7194 70.965 38.7194C73.0329 38.7194 74.4305 37.4092 74.8298 35.3185L76.2417 35.5415C75.7568 38.0086 74.1595 39.96 70.9507 39.96C66.8577 39.96 65.0179 36.8796 65.0179 33.1022Z" fill="white"/>
<path d="M78.0671 33.1441C78.0671 28.9068 80.4345 26.3142 84.0712 26.3142C87.7079 26.3142 90.0753 28.9068 90.0753 33.1441C90.0753 37.3813 87.7079 39.96 84.0712 39.96C80.4345 39.96 78.0671 37.2838 78.0671 33.1441ZM88.5635 33.1441C88.5635 29.6873 86.8807 27.5269 84.0712 27.5269C81.2617 27.5269 79.5788 29.6873 79.5788 33.1441C79.5788 36.6008 81.276 38.7613 84.0712 38.7613C86.8664 38.7613 88.5635 36.5869 88.5635 33.1441Z" fill="white"/>
<path d="M92.9846 26.635H95.0383L98.9174 37.047C99.0701 37.4042 99.1756 37.7789 99.2311 38.1621H99.2739C99.3452 37.744 99.4023 37.6046 99.6162 37.047L103.481 26.635H105.549V39.6535H104.194V29.2694C104.187 28.8362 104.211 28.4031 104.265 27.9731H104.194C104.095 28.4344 103.971 28.8903 103.823 29.3391L99.9727 39.6535H98.5608L94.7102 29.3391C94.5453 28.8944 94.4165 28.4376 94.3252 27.9731H94.2681C94.2967 28.3773 94.3252 28.7955 94.3252 29.2694V39.6535H92.9846V26.635Z" fill="white"/>
<path d="M109.485 26.635H111.539L115.418 37.047C115.564 37.4063 115.669 37.7803 115.732 38.1621H115.774C115.846 37.744 115.903 37.6046 116.117 37.047L119.982 26.635H122.049V39.6535H120.695V29.2694C120.688 28.8362 120.712 28.4031 120.766 27.9731H120.695C120.595 28.4344 120.472 28.8903 120.324 29.3391L116.473 39.6535H115.061L111.211 29.3391C111.046 28.8944 110.917 28.4376 110.826 27.9731H110.769C110.797 28.3773 110.826 28.7955 110.826 29.2694V39.6535H109.485V26.635Z" fill="white"/>
<path d="M127.155 26.635V35.0678C127.155 37.284 128.41 38.7057 130.678 38.7057C132.945 38.7057 134.229 37.284 134.229 35.0678V26.635H135.683V35.1654C135.683 38.0367 133.901 39.9602 130.678 39.9602C127.455 39.9602 125.7 38.0367 125.7 35.1654V26.635H127.155Z" fill="white"/>
<path d="M139.334 26.635H141.103L147.278 36.5731C147.57 37.0591 147.832 37.5618 148.062 38.0785H148.091C148.062 37.6325 148.048 37.1725 148.048 36.4756V26.635H149.36V39.6535H147.592L141.417 29.6875C141.102 29.2139 140.839 28.7094 140.632 28.1822H140.589C140.632 28.6282 140.646 29.0882 140.646 29.7851V39.6535H139.334V26.635Z" fill="white"/>
<path d="M153.296 39.6535V26.635H154.737V39.6535H153.296Z" fill="white"/>
<path d="M157.646 33.1022C157.646 29.1019 159.728 26.3142 163.636 26.3142C166.845 26.3142 168.542 28.2098 168.87 30.9L167.387 31.0533C167.116 28.9346 165.804 27.5408 163.564 27.5408C160.769 27.5408 159.172 29.7709 159.172 33.0883C159.172 36.4057 160.655 38.7194 163.607 38.7194C165.661 38.7194 167.059 37.4092 167.472 35.3185L168.87 35.5415C168.385 38.0086 166.788 39.96 163.579 39.96C159.486 39.96 157.646 36.8796 157.646 33.1022Z" fill="white"/>
<path d="M178.639 35.8623H172.891L171.48 39.6535H169.968L175.045 26.635H176.5L181.562 39.6535H180.051L178.639 35.8623ZM178.182 34.6496L176.214 29.3112C176.029 28.7955 175.901 28.447 175.787 28.0428H175.744C175.623 28.4723 175.48 28.8957 175.316 29.3112L173.348 34.6496H178.182Z" fill="white"/>
<path d="M190.861 27.8337H186.554V39.6535H185.099V27.8337H180.792V26.635H190.861V27.8337Z" fill="white"/>
<path d="M193.014 39.6535V26.635H194.455V39.6535H193.014Z" fill="white"/>
<path d="M197.364 33.1441C197.364 28.9068 199.732 26.3142 203.382 26.3142C207.033 26.3142 209.387 28.9068 209.387 33.1441C209.387 37.3813 207.019 39.96 203.382 39.96C199.746 39.96 197.364 37.2838 197.364 33.1441ZM207.861 33.1441C207.861 29.6873 206.192 27.5269 203.382 27.5269C200.573 27.5269 198.89 29.6873 198.89 33.1441C198.89 36.6008 200.573 38.7613 203.382 38.7613C206.192 38.7613 207.861 36.5869 207.861 33.1441Z" fill="white"/>
<path d="M212.296 26.635H214.05L220.225 36.5731C220.527 37.056 220.794 37.559 221.024 38.0785H221.052C221.024 37.6325 220.995 37.1725 220.995 36.4756V26.635H222.322V39.6535H220.553L214.378 29.6875C214.063 29.2139 213.801 28.7094 213.594 28.1822H213.551C213.594 28.6282 213.608 29.0882 213.608 29.7851V39.6535H212.296V26.635Z" fill="white"/>
<path d="M224.974 35.7505L226.443 35.5415C226.657 37.3117 227.784 38.7891 230.294 38.7891C232.019 38.7891 233.503 38.0365 233.503 36.336C233.503 34.6355 232.447 34.1197 230.793 33.7992L228.825 33.4228C226.914 33.0465 225.545 32.0429 225.545 29.9243C225.545 27.8056 227.285 26.3142 230.066 26.3142C232.847 26.3142 234.672 27.4572 234.886 30.0915L233.431 30.3703C233.246 28.405 232.119 27.4572 230.037 27.4572C228.226 27.4572 227.042 28.3492 227.042 29.7988C227.042 31.2484 227.798 31.8617 229.41 32.1823L231.378 32.5726C233.431 32.9768 235 33.8549 235 36.1826C235 38.5104 233.374 39.96 230.237 39.96C227.099 39.96 225.174 38.1619 224.974 35.7505Z" fill="white"/>
<path d="M16.3721 16.0015H0V31.9986H16.3721V16.0015Z" fill="#9388F9"/>
<path d="M16.3721 32.0029H0V48.0001H16.3721V32.0029Z" fill="#742AF5"/>
<path d="M32.7443 16.0015H16.3722V31.9986H32.7443V16.0015Z" fill="#786AF7"/>
<path d="M32.7443 32.0029H16.3722V48.0001H32.7443V32.0029Z" fill="#742AF5"/>
<path d="M49.1021 16.0015H32.73V31.9986H49.1021V16.0015Z" fill="#5645F5"/>
<path d="M16.3721 0.000488281V16.0019H0C0 11.758 1.72492 7.68802 4.79529 4.68718C7.86566 1.68634 12.03 0.000488281 16.3721 0.000488281Z" fill="#AEA6FA"/>
<path d="M32.7443 0H16.3722V15.9972H32.7443V0Z" fill="#9388F9"/>
<path d="M49.1021 0H32.73V15.9972H49.1021V0Z" fill="#786AF7"/>
<path d="M32.73 32.0029H49.1021C49.0983 36.2443 47.3717 40.3108 44.3018 43.3086C41.2318 46.3064 37.0697 47.9904 32.73 47.9904V32.0029Z" fill="#5B22C6"/>
<path d="M16.3722 47.9904V32.0029H32.7301" fill="#786AF7"/>
</svg>
