<svg width="43" height="30" viewBox="0 0 43 30" fill="none" xmlns="http://www.w3.org/2000/svg">
<path fill-rule="evenodd" clip-rule="evenodd" d="M38.4319 0.917647C40.2309 1.41176 41.6493 2.85882 42.1337 4.69412C43.0332 8.04706 42.9986 15.0353 42.9986 15.0353C42.9986 15.0353 42.9986 21.9882 42.1337 25.3412C41.6493 27.1765 40.2309 28.6235 38.4319 29.1176C35.1453 30 21.9987 30 21.9987 30C21.9987 30 8.88672 30 5.56548 29.0824C3.76648 28.5882 2.34803 27.1412 1.86369 25.3059C0.998779 21.9882 0.998779 15 0.998779 15C0.998779 15 0.998779 8.04706 1.86369 4.69412C2.34803 2.85882 3.80107 1.37647 5.56548 0.882353C8.85212 0 21.9987 0 21.9987 0C21.9987 0 35.1453 0 38.4319 0.917647ZM28.7449 15.0002L17.8125 21.4237V8.57666L28.7449 15.0002Z" fill="white"/>
</svg>
